# xmcd CD database file
#
# Track frame offsets:
#	150
#	15702
#	31133
#	51485
#	73490
#	95888
#	111953
#	131088
#	148124
#	163393
#	176966
#
# Disc length: 2561 seconds
#
# Revision: 6
# Processed by: cddbd v1.5.2PL0 Copyright (c) Steve Scherf et al.
# Submitted via: CDex 1.51
#
DISCID=b309ff0b
DTITLE=Smokey Robinson - Smokey and Friends
DYEAR=2014
DGENRE=R&B
TTITLE0=Smokey Robinson And Elton John - The Tracks Of My Tears
TTITLE1=Smokey Robinson And Steven Tyler - You Really Got A Hold On Me
TTITLE2=Smokey Robinson And Miguel, Aloe Blacc And JC Chasezz - My Girl
TTITLE3=Smokey Robinson And Jessie J - Cruisin'
TTITLE4=Smokey Robinson And John Legend - Quiet Storm
TTITLE5=Smokey Robinson And CeeLo Green - The Way You Do (The Things You Do)
TTITLE6=Smokey Robinson And Mary J. Blige - Being With You
TTITLE7=Smokey Robinson And James Taylor - Ain't That Peculiar
TTITLE8=Smokey Robinson And Sheryl Crow - The Tears Of A Clown
TTITLE9=Smokey Robinson And Ledisi - Ooh Baby Baby
TTITLE10=Smokey Robinson And Gary Barlow - Get Ready
EXTD=YEAR: 2014
EXTT0=
EXTT1=
EXTT2=
EXTT3=
EXTT4=
EXTT5=
EXTT6=
EXTT7=
EXTT8=
EXTT9=
EXTT10=
PLAYORDER=
